HIERARCHY
ROOT hip
{
  OFFSET 0 0 0
  CHANNELS 6 Xposition Yposition Zposition Zrotation Yrotation Xrotation
  JOINT abdomen
  {
    OFFSET 0 20.6881 -0.73152
    CHANNELS 3 Zrotation Xrotation Yrotation
    JOINT chest
    {
      OFFSET 0 11.7043 -0.48768
      CHANNELS 3 Zrotation Xrotation Yrotation
      JOINT neck
      {
        OFFSET 0 22.1894 -2.19456
        CHANNELS 3 Zrotation Xrotation Yrotation
        JOINT head
        {
          OFFSET -0.24384 7.07133 1.2192
          CHANNELS 3 Zrotation Xrotation Yrotation
          JOINT leftEye
          {
            OFFSET 4.14528 8.04674 8.04672
            CHANNELS 3 Zrotation Xrotation Yrotation
            End Site
            {
              OFFSET 1 0 0
            }
          }
          JOINT rightEye
          {
            OFFSET -3.6576 8.04674 8.04672
            CHANNELS 3 Zrotation Xrotation Yrotation
            End Site
            {
              OFFSET 1 0 0
            }
          }
        }
      }
      JOINT rCollar
      {
        OFFSET -2.68224 19.2634 -4.8768
        CHANNELS 3 Zrotation Xrotation Yrotation
        JOINT rShldr
        {
          OFFSET -8.77824 -1.95073 1.46304
          CHANNELS 3 Zrotation Xrotation Yrotation
          JOINT rForeArm
          {
            OFFSET -28.1742 -1.7115 0.48768
            CHANNELS 3 Zrotation Xrotation Yrotation
            JOINT rHand
            {
              OFFSET -22.5879 0.773209 7.07136
              CHANNELS 3 Zrotation Xrotation Yrotation
              JOINT rThumb1
              {
                OFFSET -1.2192 -0.487915 3.41376
                CHANNELS 3 Zrotation Xrotation Yrotation
                JOINT rThumb2
                {
                  OFFSET -3.37035 -0.52449 3.41376
                  CHANNELS 3 Zrotation Xrotation Yrotation
                  End Site
                  {
                    OFFSET -1.78271 -1.18214 1.43049
                  }
                }
              }
              JOINT rIndex1
              {
                OFFSET -7.75947 0.938293 5.60832
                CHANNELS 3 Zrotation Xrotation Yrotation
                JOINT rIndex2
                {
                  OFFSET -2.54057 -0.884171 1.56538
                  CHANNELS 3 Zrotation Xrotation Yrotation
                  End Site
                  {
                    OFFSET -1.62519 -0.234802 1.16502
                  }
                }
              }
              JOINT rMid1
              {
                OFFSET -8.24714 1.18213 3.41376
                CHANNELS 3 Zrotation Xrotation Yrotation
                JOINT rMid2
                {
                  OFFSET -3.10165 -0.590103 1.0647
                  CHANNELS 3 Zrotation Xrotation Yrotation
                  End Site
                  {
                    OFFSET -2.48547 -0.328903 0.83742
                  }
                }
              }
              JOINT rRing1
              {
                OFFSET -8.82822 0.546677 1.51678
                CHANNELS 3 Zrotation Xrotation Yrotation
                JOINT rRing2
                {
                  OFFSET -2.60934 -0.819778 -0.0198488
                  CHANNELS 3 Zrotation Xrotation Yrotation
                  End Site
                  {
                    OFFSET -2.33842 -0.294052 0.168128
                  }
                }
              }
              JOINT rPinky1
              {
                OFFSET -8.27202 -0.0477905 -0.4584
                CHANNELS 3 Zrotation Xrotation Yrotation
                JOINT rPinky2
                {
                  OFFSET -1.82734 -0.647385 -0.700984
                  CHANNELS 3 Zrotation Xrotation Yrotation
                  End Site
                  {
                    OFFSET -1.69225 -0.51767 -0.607171
                  }
                }
              }
            }
          }
        }
      }
      JOINT lCollar
      {
        OFFSET 2.68224 19.2634 -4.8768
        CHANNELS 3 Zrotation Xrotation Yrotation
        JOINT lShldr
        {
          OFFSET 8.77824 -1.95073 1.46304
          CHANNELS 3 Zrotation Xrotation Yrotation
          JOINT lForeArm
          {
            OFFSET 28.1742 -1.7115 0.48768
            CHANNELS 3 Zrotation Xrotation Yrotation
            JOINT lHand
            {
              OFFSET 22.5879 0.773209 7.07136
              CHANNELS 3 Zrotation Xrotation Yrotation
              JOINT lThumb1
              {
                OFFSET 1.2192 -0.487915 3.41376
                CHANNELS 3 Zrotation Xrotation Yrotation
                JOINT lThumb2
                {
                  OFFSET 3.37035 -0.52449 3.41376
                  CHANNELS 3 Zrotation Xrotation Yrotation
                  End Site
                  {
                    OFFSET 1.78271 -1.18214 1.43049
                  }
                }
              }
              JOINT lIndex1
              {
                OFFSET 7.75947 0.938293 5.60832
                CHANNELS 3 Zrotation Xrotation Yrotation
                JOINT lIndex2
                {
                  OFFSET 2.54057 -0.884171 1.56538
                  CHANNELS 3 Zrotation Xrotation Yrotation
                  End Site
                  {
                    OFFSET 1.62519 -0.234802 1.16502
                  }
                }
              }
              JOINT lMid1
              {
                OFFSET 8.24714 1.18213 3.41376
                CHANNELS 3 Zrotation Xrotation Yrotation
                JOINT lMid2
                {
                  OFFSET 3.10165 -0.590103 1.0647
                  CHANNELS 3 Zrotation Xrotation Yrotation
                  End Site
                  {
                    OFFSET 2.48547 -0.328903 0.83742
                  }
                }
              }
              JOINT lRing1
              {
                OFFSET 8.82822 0.546677 1.51678
                CHANNELS 3 Zrotation Xrotation Yrotation
                JOINT lRing2
                {
                  OFFSET 2.60934 -0.819778 -0.0198488
                  CHANNELS 3 Zrotation Xrotation Yrotation
                  End Site
                  {
                    OFFSET 2.33842 -0.294052 0.168128
                  }
                }
              }
              JOINT lPinky1
              {
                OFFSET 8.27202 -0.0477905 -0.4584
                CHANNELS 3 Zrotation Xrotation Yrotation
                JOINT lPinky2
                {
                  OFFSET 1.82734 -0.647385 -0.700984
                  CHANNELS 3 Zrotation Xrotation Yrotation
                  End Site
                  {
                    OFFSET 1.69225 -0.51767 -0.607171
                  }
                }
              }
            }
          }
        }
      }
    }
  }
  JOINT rButtock
  {
    OFFSET -8.77824 4.35084 1.2192
    CHANNELS 3 Zrotation Xrotation Yrotation
    JOINT rThigh
    {
      OFFSET 0 -1.70687 -2.19456
      CHANNELS 3 Zrotation Xrotation Yrotation
      JOINT rShin
      {
        OFFSET 0 -36.8199 0.73152
        CHANNELS 3 Zrotation Xrotation Yrotation
        JOINT rFoot
        {
          OFFSET 0.73152 -45.1104 -5.12064
          CHANNELS 3 Zrotation Xrotation Yrotation
          End Site
          {
            OFFSET -1.1221 -3.69964 12.103
          }
        }
      }
    }
  }
  JOINT lButtock
  {
    OFFSET 8.77824 4.35084 1.2192
    CHANNELS 3 Zrotation Xrotation Yrotation
    JOINT lThigh
    {
      OFFSET 0 -1.70687 -2.19456
      CHANNELS 3 Zrotation Xrotation Yrotation
      JOINT lShin
      {
        OFFSET 0 -36.8199 0.73152
        CHANNELS 3 Zrotation Xrotation Yrotation
        JOINT lFoot
        {
          OFFSET -0.73152 -45.1104 -5.12064
          CHANNELS 3 Zrotation Xrotation Yrotation
          End Site
          {
            OFFSET 1.1221 -3.69964 12.103
          }
        }
      }
    }
  }
}
MOTION
Frames:	8
Frame Time:	0.00833333
0.0 0.0 0.0 0.0 0.0 0.0 0.0 0.0 0.0 0.0 0.0 0.0 0.0 0.0 0.0 0.0 0.0 0.0 0.0 0.0 0.0 0.0 0.0 0.0 0.0 0.0 0.0 0.0 0.0 0.0 0.0 0.0 0.0 0.0 0.0 0.0 0.0 0.0 0.0 0.0 0.0 0.0 0.0 0.0 0.0 0.0 0.0 0.0 0.0 0.0 0.0 0.0 0.0 0.0 0.0 0.0 0.0 0.0 0.0 0.0 0.0 0.0 0.0 0.0 0.0 0.0 0.0 0.0 0.0 0.0 0.0 0.0 0.0 0.0 0.0 0.0 0.0 0.0 0.0 0.0 0.0 0.0 0.0 0.0 0.0 0.0 0.0 0.0 0.0 0.0 0.0 0.0 0.0 0.0 0.0 0.0 0.0 0.0 0.0 0.0 0.0 0.0 0.0 0.0 0.0 0.0 0.0 0.0 0.0 0.0 0.0 0.0 0.0 0.0 0.0 0.0 0.0 0.0 0.0 0.0 0.0 0.0 0.0 0.0 0.0 0.0 0.0 0.0 0.0 0.0 0.0 0.0
-64.1373 84.3376 7.0485999999999995 33.3529 83.623155 40.2429 -0.736199 -8.067296 177.214563 -0.543051 -5.783965 -175.739965 11.604576 10.036716 82.068798 -10.918187 10.358091 -87.348563 0.001581 0.0 0.001541 0.001581 0.0 0.001541 -85.537902 68.183214 88.688866 -169.425806 -29.825123 152.263545 -174.089381 -29.615773 137.054526 159.743608 -35.519631 139.205166 -176.927118 -14.53277 89.657888 165.618671 -31.160928 101.846454 -14.229311 19.203369 9.559206 -24.9744 35.911524 16.609015 -151.477344 17.842201 137.539791 -3.254138 17.329173 3.678946 -145.117522 0.226886 -179.199051 12.12186 44.702836 -3.864847 -25.53655 -38.086855 -24.600627 38.714196 80.748079 -1.505514 33.829552 -85.666283 55.246611 -1.97223 0.051493 6.441179 26.151763 81.492499 -38.063233 3.723626 9.22587 0.397071 0.543947 0.536221 -0.085915 -10.67581 -15.083856 7.903855 173.386025 -52.451219 -119.982645 -6.883381 14.607894 6.097776 158.520851 -0.192166 -142.145665 -2.959311 0.832557 -0.470294 74.389284 -72.134402 91.483459 147.302455 -45.876807 175.945057 80.938625 -51.228934 79.359955 126.048773 -30.219766 125.03171 0.002573 0.000293 0.002573 -0.417632 -9.132375 -0.0 3.511224 18.194176 159.774218 68.563308 27.77272 -166.939492 -179.994532 75.749349 -0.004824 179.520198 67.289234 -176.810499 -6.116259 -9.445551 -107.431082 -101.079361 50.86237 16.358197
-64.90390000000001 84.6908 6.9627 27.195635 83.745992 37.344996 -0.172674 -7.326318 -40.407853 -1.968791 1.784436 43.756943 -6.915183 11.997498 -49.299261 12.182734 -2.103998 39.610607 -0.002366 0.0 -0.00181 -0.002366 0.0 -0.00181 0.070951 -0.427803 -0.094881 -39.248826 86.706604 92.250609 1.103932 69.660214 -50.724282 156.619014 -36.212038 138.879343 -0.442557 0.434889 0.06929 -20.288452 18.488802 17.975801 -14.229594 19.202666 9.561234 15.856458 -9.589494 -1.598657 -160.097741 -4.901078 142.969466 -3.339954 17.312917 3.698323 -145.100373 -1.520896 -178.64973 -141.693188 -56.537866 -163.981582 -5.513827 -12.596632 -5.174861 -145.626108 7.005319 -142.501294 83.951337 68.258113 -87.08579 -77.399873 -40.628773 -68.407998 -162.287548 5.891869 -132.364983 177.607472 14.333822 -143.856012 67.034405 37.762739 -34.643897 148.700698 -35.473914 -86.13384 -29.100987 -49.273891 4.261976 13.0951 34.837093 -11.591271 -68.982608 -80.154488 -40.577386 159.817904 5.925758 -141.702481 145.118468 0.26742 179.21309 -11.896981 29.424027 5.656358 81.323037 -51.181858 79.741112 -3.028977 -1.023694 1.28888 0.004241 -7.1e-05 0.00212 -1.375099 -16.247364 -180.0 1.837302 -24.633832 17.614152 173.265161 15.143597 -149.495397 -0.000624 0.001751 0.000802 -0.480865 -10.232147 -0.094823 3.316881 6.163829 30.28147 -150.211625 -15.770187 19.271921
-65.3569 84.8857 6.9207 22.928021 83.93895 34.867432 -0.580563 -13.639671 -125.195581 -5.36618 -4.188678 129.931932 -7.673177 22.73571 -93.428723 20.287684 7.541805 77.91951 0.00406 0.0 0.000947 0.004122 -0.0 -0.000622 4.239114 -44.7428 -8.647442 -115.095416 -0.714822 -142.161269 -175.601584 -13.027886 -153.817029 -7.707763 42.308718 3.969575 -171.7056 -9.388502 89.949676 -126.984866 12.653312 61.45711 -153.454855 -21.067148 121.744829 -171.732746 -35.996019 117.513221 -4.105149 11.116257 2.538861 -167.274254 -17.317301 144.227967 0.000106 0.063827 0.020142 -156.488373 -25.092675 174.787653 -87.576077 -50.209319 -85.929903 -150.355643 24.41675 -145.252077 80.166007 68.371991 -83.260831 -65.834943 -18.055719 -75.491905 0.129359 -37.416539 -25.816706 5.846707 10.263784 0.818796 -96.572376 -51.194953 -43.018414 34.986326 4.613272 7.705555 140.165274 2.325867 -115.876725 169.129242 -26.699674 -118.439835 148.320249 24.24826 -135.132558 -167.435828 -64.002782 -132.45889 -0.000764 0.063809 -0.019371 154.239024 12.766238 -170.103462 3.809172 -9.065009 3.560385 -1.56534 -2.988004 0.943369 0.006 -0.00014 0.006 -2.02505 -18.261954 12.33075 0.224737 25.04616 -152.485927 -36.102479 55.12398 148.548323 0.000612 -0.000129 -0.000787 -0.019154 -14.062075 -35.730326 -16.045794 9.402879 -85.996326 75.338291 -25.921174 158.48791
-65.5047 84.8849 6.9239 20.238951 84.26029 32.555828 -2.993177 -16.924172 -180.0 -1.971841 -8.410379 -174.568904 -6.851533 18.454911 -55.823932 15.805763 -4.786835 38.389328 0.003669 -0.0 -0.000425 -0.001947 -0.0 0.000772 3.191993 -25.838874 -5.074459 -85.640605 -5.998694 -154.014506 23.626903 2.432833 -65.014714 161.545667 -21.149523 146.159141 -10.203169 9.662152 2.405587 14.310422 -15.651047 -3.398915 -90.225112 41.070955 75.796501 21.30989 -25.704976 -5.291509 78.53525 -80.920219 49.687407 -42.435439 58.39615 36.304788 0.006043 1.77235 0.556576 6.768843 29.707093 4.675097 -86.002646 -50.497915 -84.37032 3.415192 0.0119 -1.029467 159.221272 -48.02853 -170.4148 39.391827 17.192513 43.111957 -164.899636 54.93392 132.054784 12.771091 27.490063 -1.5124 -114.537953 -50.244942 -55.722346 153.059437 3.741756 -108.612558 50.385643 40.826781 -40.024681 162.846054 -8.383752 -112.302716 82.841197 61.112166 -74.531865 179.68823 -48.726406 -141.18959 72.757433 -72.141502 89.773086 58.655824 -82.282256 84.568598 -6.763154 20.646924 -6.030413 129.085148 -29.150962 126.994275 179.969702 75.750995 0.024929 177.806319 52.265808 -167.882259 -7.87799 -24.241239 -75.554641 110.484012 70.264826 165.854593 0.000661 -0.001354 -0.000849 -0.88902 -16.391756 4.491782 -5.42273 13.273082 -74.373379 93.941101 -79.896983 175.707346
-65.58279999999999 84.8984 6.8833 17.432255 84.416557 30.054947 -3.206851 -18.047684 174.160989 -1.568326 -8.706733 -168.408382 14.083441 24.917991 110.561383 -14.651597 23.190993 -132.065535 -0.000319 -0.0 4.5e-05 -0.000319 -0.0 4.5e-05 3.771867 -33.701786 -6.516106 -72.566963 -15.146908 -143.443575 -159.37168 8.521562 -151.769039 -1.970007 30.131027 4.141002 11.110949 -11.091775 -0.639983 5.973337 -15.983911 -13.324058 -162.918582 -37.929527 122.629305 83.53922 -68.824507 29.817989 -160.937123 -7.488109 143.368282 -1.400587 12.594256 2.557878 -72.061451 72.975616 89.91529 -73.411688 -82.478883 -90.504835 -4.661844 -10.865867 -4.365781 -128.559024 -29.106317 -127.106221 -3.772171 -33.701865 6.514821 84.348713 -6.262912 149.888451 -179.280204 -4.264706 145.017024 9.382115 17.840424 0.135811 -83.253896 -50.257658 -33.61634 138.626039 15.39272 -103.338611 -0.18417 -0.300372 0.105286 -8.004275 5.154686 -0.346509 36.035693 51.723161 -29.832416 163.371922 -5.601671 -143.342132 145.123276 1.975926 179.747821 155.705796 1.47668 179.414181 87.576865 -50.205357 85.92865 158.954035 52.769955 148.273519 -179.99502 75.751514 -0.003407 177.846649 53.284762 1.700876 2.146236 24.947569 129.185513 86.079751 58.599782 -176.252317 179.997866 75.74965 0.002202 178.798509 58.319113 1.411802 0.536225 22.780673 163.542589 -110.054407 -14.30239 176.64743
-65.64370000000001 84.9195 6.8237000000000005 14.440538 84.503266 27.314944 -2.62515 -18.377445 180.0 -2.378293 -8.250783 -174.369029 -5.378495 17.461314 -44.259925 11.842711 -8.563548 25.192341 0.003534 -0.0 -0.000474 -0.002164 0.0 -0.000958 -151.261411 17.589894 156.535655 -89.309016 17.558673 26.023318 -173.426714 43.107385 -148.952355 -8.71923 48.418841 5.48495 51.059371 -41.204303 12.856501 -49.55477 33.004446 20.815851 2.326482 -3.867511 -1.260348 2.755352 12.635194 2.269079 -156.222362 6.26607 140.788653 -172.26367 -31.368524 143.660986 -0.014926 -1.323016 -0.416754 -154.283792 11.213577 170.333956 1.482269 4.003948 1.35869 14.493327 41.813905 8.479763 149.636776 23.301228 -154.670999 92.773617 26.574098 -32.381211 -35.638432 -13.574648 56.01656 173.421381 20.763643 -141.814284 1.193141 1.174475 -0.195141 132.676809 -31.937739 -116.12289 -73.419177 -73.571772 -26.562491 -179.558466 -47.534023 -106.934126 -0.539981 -1.590079 0.295545 179.673029 -48.729372 -141.473699 -0.001305 0.063594 -0.021636 156.577912 -31.642591 -175.571354 1.187806 -3.006782 1.100464 146.852292 10.300465 143.366215 -179.994563 75.750083 -0.004473 178.053428 53.235427 9.540194 -7.418529 20.630089 -73.603478 -74.394607 -76.80124 22.186898 -0.000315 -0.000441 0.0 -0.299971 -19.656 -177.770822 -4.364486 -12.940493 -150.647331 -147.733286 -6.813619 12.229707
-65.6886 84.94460000000001 6.775200000000001 11.336246 84.615617 24.410605 -2.182519 -18.357484 -180.0 -2.504418 -7.864352 -174.704297 5.2838 12.638034 20.461707 -11.365488 -5.8753 -42.073247 -0.000486 -0.0 0.00223 -0.000486 -0.0 0.00223 3.206853 -26.010263 -5.106376 -76.937176 -19.533916 -150.780685 24.19217 -10.834495 -59.607141 161.40998 -21.314359 146.182238 -0.543722 0.536323 0.085798 5.353509 -6.974041 -3.924713 -0.32818 0.529624 0.186903 104.928522 -61.812704 50.383525 -36.03541 51.723613 29.831365 3.258918 0.430995 0.128012 -145.120288 0.310169 -179.22558 -154.180484 -12.523554 -177.502369 -146.2266 15.469513 -142.749249 -156.248602 38.635197 -146.158118 -2.530326 -18.881348 3.7921 -125.824998 70.093228 41.741383 -150.536574 39.803914 -134.769205 175.878664 14.036419 -142.754658 -4.654265 -4.638495 0.530316 21.46827 19.839488 -16.232793 -60.459099 -70.524786 -15.708704 -89.848679 -64.757432 -32.999879 0.338878 0.981965 -0.1904 -9.84749 -20.361396 1.549286 145.119432 0.310118 179.225691 6.958716 -61.109608 27.909551 74.131414 -51.745999 72.618777 -2.513557 -2.370382 1.636618 -0.001393 0.0007 -0.000697 -1.033715 -22.052277 11.581809 8.059715 18.89315 81.460058 -90.004074 -59.151898 -174.705525 179.995864 75.748942 0.00283 -179.921606 58.830877 -0.0 1.83506 21.1193 151.809445 -72.698007 -18.200518 -162.99113
